PathFileType	4	(X/Y/Z)	C:\Users\Basilio\Documents\Thesis Gigler\squatting_fais\c3dfiles\075\SLS_front_pre5\markers_experimental.trc
DataRate	CameraRate	NumFrames	NumMarkers	Units	OrigDataRate	OrigDataStartFrame	OrigNumFrames
200.000000	200.000000	4	61	mm	200.000000	0	1363
Frame#	Time	FHD			LBHD			C7			T10			CLAV			LSHO			LUUPA			LMUPA			LDUPA			LLEP			LMEP			LRAD			LUL			LRFIN			RSHO			RUPA1			RMUPA			RDUPA			RLEP			RMEP			RRAD			RUL			RUFIN			RASI			USACR			LSACR			RSACR			LTHI1			LTHI2			LTHI3			LTHI4			LLFC			LMFC			LTIB1			LTIB2			LTIB3			LTIB4			LLMAL			LMMAL			LHEE			LMT1			LMT2			LMT5			RTHI			RTHI2			RTHI3			RTHI4			RLFC			RMFC			RTIB1			RTIB2			RTIB3			RTIB4			RLMAL			RMMAL			RHEE			RMT1			RMT2			RMT5			LASI			RBHD			
		X1	Y1	Z1	X2	Y2	Z2	X3	Y3	Z3	X4	Y4	Z4	X5	Y5	Z5	X6	Y6	Z6	X7	Y7	Z7	X8	Y8	Z8	X9	Y9	Z9	X10	Y10	Z10	X11	Y11	Z11	X12	Y12	Z12	X13	Y13	Z13	X14	Y14	Z14	X15	Y15	Z15	X16	Y16	Z16	X17	Y17	Z17	X18	Y18	Z18	X19	Y19	Z19	X20	Y20	Z20	X21	Y21	Z21	X22	Y22	Z22	X23	Y23	Z23	X24	Y24	Z24	X25	Y25	Z25	X26	Y26	Z26	X27	Y27	Z27	X28	Y28	Z28	X29	Y29	Z29	X30	Y30	Z30	X31	Y31	Z31	X32	Y32	Z32	X33	Y33	Z33	X34	Y34	Z34	X35	Y35	Z35	X36	Y36	Z36	X37	Y37	Z37	X38	Y38	Z38	X39	Y39	Z39	X40	Y40	Z40	X41	Y41	Z41	X42	Y42	Z42	X43	Y43	Z43	X44	Y44	Z44	X45	Y45	Z45	X46	Y46	Z46	X47	Y47	Z47	X48	Y48	Z48	X49	Y49	Z49	X50	Y50	Z50	X51	Y51	Z51	X52	Y52	Z52	X53	Y53	Z53	X54	Y54	Z54	X55	Y55	Z55	X56	Y56	Z56	X57	Y57	Z57	X58	Y58	Z58	X59	Y59	Z59	X60	Y60	Z60	X61	Y61	Z61	

1	0	-225.156723022461	1709.75537109375	-888.5693969726565	-361.5168151855469	1590.7490234375	-971.5527954101565	-405.818817138672	1473.52880859375	-914.4507446289065	-420.4656982421876	1148.816772460938	-908.009460449219	-263.4323730468751	1410.118408203125	-903.705261230469	-283.0910949707032	1437.768188476563	-1066.554809570313	-287.6765136718751	1234.311157226563	-1182.17431640625	-249.2584686279297	1212.900390625	-1157.822509765625	-269.8634643554688	1167.362670898438	-1193.554077148438	-243.8029022216797	1086.349853515625	-1189.065795898438	-319.6103515625001	1072.136962890625	-1137.083251953125	-154.8055267333985	1006.996520996094	-968.5911865234377	-114.1857299804688	962.185729980469	-1013.661437988281	-94.22738647460939	998.7586059570315	-915.6750488281252	-307.2926025390626	1434.395141601563	-743.5303344726564	-324.3482055664063	1230.9541015625	-631.8750610351564	-284.7399902343751	1206.3876953125	-648.4097290039064	-314.0011596679688	1162.098876953125	-618.2780151367189	-291.8709411621094	1093.8857421875	-616.5983886718751	-349.7084350585938	1059.12451171875	-668.0928955078126	-136.0064086914063	1028.6396484375	-836.307800292969	-123.1242141723633	983.6492919921877	-774.9053344726565	-64.16622924804689	995.609558105469	-875.4392700195315	-244.4263610839844	994.7181396484377	-773.529724121094	-405.8457946777345	1045.802734375	-905.731628417969	-410.2280273437501	1013.465026855469	-931.2592773437502	-409.0006408691407	1016.135314941406	-874.4944458007815	-295.3856506347657	740.6740112304689	-1104.685424804688	-265.3158569335938	661.3005371093751	-1105.155517578125	-219.6750488281251	666.2542114257814	-1088.612426757813	-293.7275390625001	608.8222656250001	-1096.8974609375	-304.3081054687501	499.8161621093751	-1091.279907226563	-261.1622314453126	479.2135620117189	-968.4030761718752	-250.3086395263672	376.0403137207032	-1068.208374023438	-309.4371643066407	341.2437744140626	-1119.010498046875	-269.7997741699219	332.5654602050782	-1100.660034179688	-274.6111145019532	250.3454284667969	-1078.47412109375	-351.0239562988282	113.3882827758789	-1105.330078125	-323.1606140136719	120.1463623046875	-1024.77197265625	-407.0232849121095	79.39556121826173	-1069.043701171875	-200.3697814941407	51.0188446044922	-1039.3583984375	-195.9523010253907	54.79012298583986	-1087.500610351563	-233.2614898681641	41.88711166381837	-1141.422119140625	-304.0193786621094	789.8166503906252	-707.1320190429689	-265.3635253906251	737.3717041015626	-708.3717041015626	-234.4179992675782	743.6994018554689	-718.6522827148439	-292.1744689941407	655.4927978515626	-715.1271362304689	-307.7845764160157	501.2790832519532	-742.3120117187501	-262.6788940429688	489.9955139160157	-863.3875732421877	-270.7345581054688	348.6495056152344	-802.1435546875002	-333.2426147460938	278.3503112792969	-746.0189819335939	-296.7337341308594	268.5725097656251	-775.9695434570315	-309.6379089355469	224.7879486083985	-812.2900390625002	-394.3643798828126	114.7405395507813	-778.8299560546877	-359.0547180175782	135.1781921386719	-858.165710449219	-446.3297729492189	93.63851928710939	-837.3148193359377	-240.9776306152344	57.94149398803712	-824.2908935546877	-247.7072753906251	55.21794509887697	-783.2321777343752	-289.6420898437501	35.89536666870118	-734.3778686523439	nan	nan	nan	nan	nan	nan	
2	0.005	-225.3935546875001	1709.783203125	-888.5010986328127	-361.7522277832032	1590.777099609375	-971.336364746094	-405.9534606933595	1473.457641601563	-914.3035278320315	-420.4854736328126	1148.765014648438	-907.8370361328127	-263.5715332031251	1410.10302734375	-903.5748291015627	-283.1819458007813	1437.832275390625	-1066.3173828125	-287.5740356445313	1234.359741210938	-1181.99951171875	-249.1290893554688	1213.029052734375	-1157.603393554688	-269.6659545898438	1167.4599609375	-1193.276733398438	-243.4593811035157	1086.454956054688	-1188.871459960938	-319.1440124511719	1072.145751953125	-1136.770629882813	-154.3923034667969	1007.1318359375	-968.333679199219	-113.6521835327149	962.4605712890627	-1013.507873535156	-93.8198928833008	998.8875732421877	-915.4133300781252	-307.3489074707032	1434.39501953125	-743.3638916015626	-324.1526794433594	1231.020629882813	-631.6840209960939	-284.4728393554688	1206.4873046875	-648.2274780273439	-313.6406555175782	1162.196899414063	-618.0717163085939	-291.4177246093751	1093.993530273438	-616.3090820312501	-349.1105651855469	1059.167602539063	-667.7291259765626	-135.6343383789063	1028.760131835938	-836.081481933594	-122.6216506958008	983.7996215820315	-774.7009887695315	-63.76993942260744	995.7925415039065	-875.3003540039065	-244.4424133300782	994.734802246094	-773.2653808593752	-405.9093627929689	1045.83544921875	-905.5498046875002	-410.273895263672	1013.475036621094	-931.081726074219	-409.0122985839845	1016.164794921875	-874.376403808594	-295.4493103027344	740.7047119140626	-1104.611328125	-265.3888854980469	661.3410644531251	-1105.055541992188	-219.7437896728516	666.2764282226564	-1088.512939453125	-293.7709960937501	608.8623046875001	-1096.792602539063	-304.3613891601563	499.8244018554689	-1091.2197265625	-261.1056823730469	479.2468261718751	-968.294860839844	-250.3969268798829	376.0546264648438	-1068.103393554688	-310.6588439941407	341.7819519042969	-1119.375122070313	-269.8285522460938	332.6082763671876	-1100.613647460938	-274.6634521484376	250.3531341552735	-1078.427124023438	-351.0895385742188	113.3849029541016	-1105.330688476563	-323.1493225097657	120.1368103027344	-1024.774291992188	-407.0567321777345	79.38745880126955	-1069.058471679688	-200.3338317871094	51.03152465820314	-1039.384887695313	-195.9611358642579	54.78287506103517	-1087.533325195313	-233.2832794189454	41.87628173828126	-1141.42529296875	-303.9387512207032	789.7918701171877	-707.0051879882814	-265.2783508300782	737.3372802734376	-708.3012084960939	-234.3080596923829	743.6958618164064	-718.4900512695314	-292.1232604980469	655.4465332031251	-715.0075683593751	-307.6792602539063	501.260955810547	-742.2526245117189	-262.5538330078126	489.9721679687501	-863.2897949218752	-270.6820068359376	348.6571044921876	-802.1223754882815	-333.1712036132813	278.3065795898438	-746.0103149414064	-296.6905212402344	268.5476379394532	-775.8916015625002	-309.6044921875001	224.8069000244141	-812.2653808593752	-394.4985656738282	114.7363052368164	-778.870788574219	-358.7332458496094	135.0384216308594	-858.0352783203127	-446.3240051269532	93.64076232910158	-837.3336181640627	-240.9639129638672	57.93105316162111	-824.2943115234377	-247.7085723876954	55.20402145385744	-783.2363281250002	-289.6610717773438	35.88827133178712	-734.3773803710939	nan	nan	nan	nan	nan	nan	
3	0.01	-225.6334991455079	1709.791015625	-888.3809204101565	-362.0019531250001	1590.700927734375	-971.1817016601565	-406.150604248047	1473.439208984375	-914.0977783203127	-420.5246887207032	1148.744140625	-907.676940917969	-263.7283020019532	1410.09765625	-903.3460083007815	-283.2574462890626	1437.89306640625	-1066.102294921875	-287.4761047363282	1234.447387695313	-1181.773803710938	-248.9874114990235	1213.184448242188	-1157.425415039063	-269.4444885253907	1167.56494140625	-1192.9951171875	-243.1187744140626	1086.567138671875	-1188.616455078125	-318.7867431640626	1072.139282226563	-1136.469482421875	-153.90576171875	1007.272583007813	-968.0720825195315	-113.1056594848633	962.7380371093752	-1013.315246582031	-93.38830566406251	999.0568847656252	-915.1315917968752	-307.4552001953126	1434.398071289063	-743.1845703125001	-323.9351501464844	1231.062255859375	-631.4411010742189	-284.1745300292969	1206.6279296875	-647.9562988281251	-313.2491455078126	1162.296508789063	-617.7993774414064	-290.8775024414063	1094.143310546875	-616.0316772460939	-348.5715026855469	1059.225341796875	-667.4399414062501	-135.2173767089844	1028.904052734375	-835.9039306640627	-122.1021575927735	983.9473266601565	-774.4749755859377	-63.33833312988283	996.0296630859377	-875.1339111328127	-244.2771759033204	994.7747192382815	-773.2718505859377	-405.9411926269532	1045.825439453125	-905.4319458007815	-410.2290954589845	1013.459777832031	-930.9697875976565	-409.0118408203126	1016.156494140625	-874.2348632812502	-295.5468444824219	740.7288818359376	-1104.4873046875	-266.4448852539063	661.6972045898439	-1105.3369140625	-219.7796478271485	666.2804565429689	-1088.417846679688	-293.8046264648438	608.8738403320314	-1096.69775390625	-304.3962097167969	499.8261718750001	-1091.132568359375	-261.1466064453126	479.2250061035157	-968.2299804687502	-250.3803100585938	376.0672607421876	-1068.148071289063	-309.5904235839844	341.3256835937501	-1118.875366210938	-269.8544616699219	332.6418457031251	-1100.619995117188	-274.6563720703126	250.3700561523438	-1078.41552734375	-351.0448608398438	113.3767852783203	-1105.332641601563	-323.1415405273438	120.134033203125	-1024.779541015625	-407.0721130371095	79.37247467041017	-1069.03857421875	-200.3809967041016	51.04047775268556	-1039.368408203125	-195.926254272461	54.74441528320314	-1087.524536132813	-233.2603454589844	41.85576629638673	-1141.42138671875	-303.8706970214844	789.7475585937502	-706.8690795898439	-265.2423400878907	737.2649536132814	-708.1369628906251	-234.2303161621094	743.6974487304689	-718.3718872070314	-292.0337829589844	655.3953857421876	-714.8964843750001	-307.6009826660157	501.1949462890626	-742.1798706054689	-262.4373474121094	489.9550170898439	-863.2131958007815	-270.5941467285157	348.6480407714844	-802.029235839844	-333.1543273925782	278.3036804199219	-745.9785766601564	-296.6448669433594	268.5241088867188	-775.9138183593752	-310.3637084960938	224.8441162109376	-812.7634277343752	-394.3456115722657	114.711051940918	-778.8083496093752	-359.0816955566407	135.1827087402344	-858.0976562500002	-446.3301696777345	93.67626190185548	-837.3222656250002	-240.9703369140626	57.92444610595705	-824.3035278320315	-247.7283782958985	55.24273681640626	-783.2529296875002	-289.6366577148438	35.89967727661134	-734.3838500976564	nan	nan	nan	nan	nan	nan	
4	0.015	-225.8511657714844	1709.791870117188	-888.3496704101565	-362.2988891601563	1590.710571289063	-970.9465332031252	-406.3474731445314	1473.412841796875	-913.8781738281252	-420.5756835937501	1148.732299804688	-907.4339599609377	-263.8316040039063	1410.080810546875	-903.1817016601565	-283.3187866210938	1437.968505859375	-1065.8740234375	-287.2651977539063	1234.498168945313	-1181.616821289063	-248.7478790283204	1213.346801757813	-1157.218383789063	-269.1546936035157	1167.660888671875	-1192.722534179688	-242.7781066894532	1086.695068359375	-1188.349731445313	-318.3427124023438	1072.193603515625	-1136.242797851563	-153.2688140869141	1007.424194335938	-967.5874023437502	-112.4048843383789	963.043151855469	-1013.050842285156	-92.81047821044923	999.231384277344	-914.6185302734377	-307.5509948730469	1434.428833007813	-743.0366821289064	-323.6714782714844	1231.14892578125	-631.2596435546876	-283.7884216308594	1206.818725585938	-647.6909790039064	-312.8568725585938	1162.401489257813	-617.5525512695314	-290.2678527832032	1094.326293945313	-615.7417602539064	-347.9859008789063	1059.2822265625	-667.1045532226564	-134.698974609375	1029.087524414063	-835.6750488281252	-121.5520477294922	984.1342773437502	-774.310729980469	-62.83267974853517	996.2142333984377	-874.9822998046877	-244.0489044189454	994.769226074219	-773.2877197265627	-405.9674682617189	1045.856323242188	-905.3134765625002	-410.2281188964845	1013.475524902344	-930.7803344726565	-409.0361938476564	1016.146606445313	-874.052185058594	-295.5535278320313	740.7637939453126	-1104.3623046875	-265.5296630859376	661.3831176757814	-1104.808227539063	-219.8356475830079	666.2926635742189	-1088.391967773438	-293.8723754882813	608.8837280273439	-1096.63037109375	-304.4844970703126	499.8394470214845	-1091.079223632813	-261.1855773925782	479.2110900878907	-968.2139892578127	-250.4261169433594	376.1012573242188	-1068.115966796875	-309.6012268066407	341.3294067382813	-1118.858032226563	-269.9131164550782	332.6491699218751	-1100.623657226563	-274.7074890136719	250.3679962158204	-1078.426391601563	-351.0533447265626	113.3713912963867	-1105.323852539063	-323.1104736328126	120.1582412719727	-1024.782836914063	-407.0475463867189	79.38522338867189	-1069.091186523438	-200.3844604492188	51.06161499023439	-1039.330078125	-195.9486999511719	54.78079223632814	-1087.53759765625	-233.2621307373047	41.87368774414063	-1141.429809570313	-303.8261108398438	789.6925048828127	-706.7988891601564	-265.2099304199219	737.1447753906251	-708.0560913085939	-234.1790008544922	743.6590576171876	-718.2150268554689	-291.9684143066407	655.3840332031251	-714.7934570312501	-307.5065917968751	501.1655578613282	-742.0693969726564	-262.3572387695313	489.9711303710939	-863.1071777343752	-270.5614013671876	348.6022033691407	-802.042663574219	-333.0777893066407	278.2708129882813	-745.9199829101564	-296.6027832031251	268.4993896484376	-775.8601684570315	-310.2817382812501	224.8643035888672	-812.7752075195315	-394.4757385253907	114.7428131103516	-778.844665527344	-358.7113952636719	135.1558837890625	-858.0020751953127	-446.3301696777345	93.67626190185548	-837.3222656250002	-240.9709930419922	57.92203521728517	-824.294128417969	-247.7042388916016	55.22670745849611	-783.2812500000002	-289.6370239257813	35.88983917236329	-734.3803100585939	nan	nan	nan	nan	nan	nan	
